<?xml version="1.0" standalone="no"?>
<!DOCTYPE svg PUBLIC "-//W3C//DTD SVG 20010904//EN"
 "http://www.w3.org/TR/2001/REC-SVG-20010904/DTD/svg10.dtd">
<svg version="1.0" xmlns="http://www.w3.org/2000/svg"
 width="1320pt" height="1320pt" viewBox="0 0 1320 1320"
 preserveAspectRatio="xMidYMid meet">
<metadata>
Created by potrace 1.11, written by Peter Selinger 2001-2013
</metadata>
<g transform="translate(0,1320) scale(0.1,-0.1)"
fill="#000000" stroke="none">
<path d="M5595 11758 c-283 -32 -577 -125 -777 -246 -95 -58 -228 -162 -280
-220 l-35 -39 108 -489 c60 -268 109 -491 109 -494 0 -4 -53 -26 -117 -50
-305 -113 -745 -320 -1018 -481 -483 -283 -882 -606 -1183 -954 -191 -223
-363 -518 -443 -763 -61 -190 -82 -334 -76 -522 8 -213 43 -363 128 -537 302
-616 1079 -1053 2164 -1217 285 -43 420 -51 865 -51 443 0 547 5 880 46 1375
168 2712 720 3570 1474 337 297 589 611 746 930 80 164 120 275 156 435 31
139 33 427 5 558 -63 288 -186 502 -421 737 -240 239 -498 399 -886 550 -586
228 -1350 328 -2173 284 -114 -6 -210 -9 -212 -7 -3 3 -48 213 -101 468 -52
255 -97 468 -100 472 -21 34 -211 92 -371 113 -125 16 -407 18 -538 3z m425
-138 c121 -11 269 -37 283 -50 9 -8 -60 -68 -148 -127 -313 -210 -812 -306
-1240 -237 -113 18 -188 37 -192 49 -5 18 150 124 262 180 296 147 680 216
1035 185z m674 -1606 c158 -765 286 -1399 286 -1409 0 -10 -40 -57 -88 -104
-199 -194 -484 -354 -757 -424 -241 -62 -460 -63 -694 -4 l-86 22 -333 1499
c-184 824 -332 1499 -330 1501 2 2 58 -7 123 -21 167 -35 461 -44 655 -19 353
45 665 169 880 349 40 34 45 36 52 20 4 -11 135 -645 292 -1410z"/>
<path d="M10325 7978 c-194 -362 -575 -776 -1020 -1110 -932 -699 -2273 -1184
-3615 -1308 -904 -83 -1796 14 -2487 270 -172 64 -448 197 -577 279 -62 39
-96 55 -91 44 4 -10 498 -1334 1097 -2943 600 -1609 1097 -2930 1105 -2936 20
-17 313 -91 548 -139 1004 -204 2041 -172 3037 95 762 204 1521 566 2151 1028
l89 65 -7 166 c-3 91 -46 1590 -95 3331 -50 1741 -91 3180 -92 3198 -3 33 -4
32 -43 -40z m-640 -4752 c116 -37 198 -89 297 -187 72 -72 93 -101 132 -180
57 -118 76 -197 76 -325 0 -284 -153 -530 -408 -654 -98 -48 -199 -70 -317
-70 -203 0 -362 66 -505 210 -98 98 -140 164 -182 286 -53 154 -48 342 13 497
60 152 189 294 336 370 131 67 220 88 363 83 89 -3 133 -10 195 -30z m-3900
-600 c116 -37 198 -89 297 -187 72 -72 93 -101 132 -180 57 -118 76 -197 76
-325 0 -284 -153 -530 -408 -654 -98 -48 -199 -70 -317 -70 -203 0 -362 66
-505 210 -98 98 -140 164 -182 286 -53 154 -48 342 13 497 60 152 189 294 336
370 131 67 220 88 363 83 89 -3 133 -10 195 -30z m2100 -600 c116 -37 198 -89
297 -187 72 -72 93 -101 132 -180 57 -118 76 -197 76 -325 0 -284 -153 -530
-408 -654 -98 -48 -199 -70 -317 -70 -203 0 -362 66 -505 210 -98 98 -140 164
-182 286 -53 154 -48 342 13 497 60 152 189 294 336 370 131 67 220 88 363 83
89 -3 133 -10 195 -30z"/>
</g>
</svg>
